
<svg width="40px" height="22px" viewBox="0 0 40 22" version="1.1" xmlns="http://www.w3.org/2000/svg" xmlns:xlink="http://www.w3.org/1999/xlink">
    <!-- Generator: Sketch 48.2 (47327) - http://www.bohemiancoding.com/sketch -->
    <desc>Created with Sketch.</desc>
    <defs></defs>
    <g id="Video-Centric" stroke="none" stroke-width="1" fill="none" fill-rule="evenodd" opacity="0.2">
        <g id="0.0" transform="translate(-188.000000, -645.000000)" fill="#292929">
            <g id="cisco-logo" transform="translate(188.000000, 645.000000)">
                <polygon id="Fill-1" points="11.5884932 14.6700513 13.3183562 14.6700513 13.3183562 21.7275385 11.5884932 21.7275385"></polygon>
                <path d="M27.2673973,16.692359 C27.1967123,16.6545641 26.6389041,16.3155385 25.8115068,16.3155385 C24.6931507,16.3155385 23.9172603,17.1171282 23.9172603,18.1979487 C23.9172603,19.2466154 24.660274,20.0820513 25.8115068,20.0820513 C26.6252055,20.0820513 27.1912329,19.7497949 27.2673973,19.7069231 L27.2673973,21.6017436 C27.049863,21.664359 26.4591781,21.8527692 25.6909589,21.8527692 C23.7452055,21.8527692 22.0372603,20.4718462 22.0372603,18.1979487 C22.0372603,16.0898974 23.5824658,14.5448205 25.6909589,14.5448205 C26.5019178,14.5448205 27.1035616,14.7484615 27.2673973,14.7975385 L27.2673973,16.692359" id="Fill-2"></path>
                <path d="M9.2109589,16.692359 C9.14136986,16.6545641 8.58465753,16.3155385 7.75726027,16.3155385 C6.63671233,16.3155385 5.86136986,17.1171282 5.86136986,18.1979487 C5.86136986,19.2466154 6.60493151,20.0820513 7.75726027,20.0820513 C8.5709589,20.0820513 9.13643836,19.7497949 9.2109589,19.7069231 L9.2109589,21.6017436 C8.99561644,21.664359 8.4060274,21.8527692 7.63342466,21.8527692 C5.68876712,21.8527692 3.9830137,20.4718462 3.9830137,18.1979487 C3.9830137,16.0898974 5.52821918,14.5448205 7.63342466,14.5448205 C8.44712329,14.5448205 9.04821918,14.7484615 9.2109589,14.7975385 L9.2109589,16.692359" id="Fill-3"></path>
                <path d="M36.3320548,18.1979487 C36.3320548,20.2168718 34.8175342,21.8527692 32.7090411,21.8527692 C30.6010959,21.8527692 29.0887671,20.2168718 29.0887671,18.1979487 C29.0887671,16.1818462 30.6010959,14.5448205 32.7090411,14.5448205 C34.8175342,14.5448205 36.3320548,16.1818462 36.3320548,18.1979487 L36.3320548,18.1979487 Z M32.7090411,16.3420513 C31.6827397,16.3420513 30.9210959,17.1729744 30.9210959,18.1979487 C30.9210959,19.2246154 31.6827397,20.0555385 32.7090411,20.0555385 C33.7342466,20.0555385 34.4986301,19.2246154 34.4986301,18.1979487 C34.4986301,17.1729744 33.7342466,16.3420513 32.7090411,16.3420513 L32.7090411,16.3420513 Z" id="Fill-4"></path>
                <path d="M19.8789041,16.274359 C19.8531507,16.2658974 19.1249315,16.0588718 18.5265753,16.0588718 C17.8334247,16.0588718 17.4564384,16.2980513 17.4564384,16.6370769 C17.4564384,17.0669231 17.9649315,17.2164103 18.249863,17.3094872 L18.7271233,17.4657436 C19.849863,17.8329744 20.3610959,18.6249744 20.3610959,19.4846667 C20.3610959,21.257641 18.8471233,21.8527692 17.5227397,21.8527692 C16.6027397,21.8527692 15.7408219,21.6790256 15.6558904,21.6598462 L15.6558904,20.036359 C15.8087671,20.0758462 16.5336986,20.2981026 17.289863,20.2981026 C18.150137,20.2981026 18.5463014,20.0391795 18.5463014,19.6392308 C18.5463014,19.2821538 18.2038356,19.0751282 17.7742466,18.936359 C17.669589,18.9008205 17.5123288,18.8500513 17.4054795,18.8139487 C16.4416438,18.5003077 15.6383562,17.9175897 15.6383562,16.7487692 C15.6383562,15.4293333 16.5983562,14.5425641 18.1928767,14.5425641 C19.0350685,14.5425641 19.8273973,14.7529744 19.8789041,14.767641 L19.8789041,16.274359" id="Fill-5"></path>
                <path d="M2.14849315,7.08512821 C2.14849315,6.59887179 1.76273973,6.2045641 1.28931507,6.2045641 C0.816986301,6.2045641 0.430684932,6.59887179 0.430684932,7.08512821 L0.430684932,8.93820513 C0.430684932,9.42728205 0.816986301,9.82158974 1.28931507,9.82158974 C1.76273973,9.82158974 2.14849315,9.42728205 2.14849315,8.93820513 L2.14849315,7.08512821" id="Fill-6"></path>
                <path d="M6.86575342,4.65384615 C6.86575342,4.16758974 6.48,3.77215385 6.00712329,3.77215385 C5.53424658,3.77215385 5.14849315,4.16758974 5.14849315,4.65384615 L5.14849315,8.93820513 C5.14849315,9.42728205 5.53424658,9.82158974 6.00712329,9.82158974 C6.48,9.82158974 6.86575342,9.42728205 6.86575342,8.93820513 L6.86575342,4.65384615" id="Fill-7"></path>
                <path d="M11.5835616,1.32733333 C11.5835616,0.840512821 11.1972603,0.446205128 10.7243836,0.446205128 C10.2515068,0.446205128 9.86575342,0.840512821 9.86575342,1.32733333 L9.86575342,10.6987692 C9.86575342,11.1878462 10.2515068,11.5821538 10.7243836,11.5821538 C11.1972603,11.5821538 11.5835616,11.1878462 11.5835616,10.6987692 L11.5835616,1.32733333" id="Fill-8"></path>
                <path d="M16.3008219,4.65384615 C16.3008219,4.16758974 15.9150685,3.77215385 15.4421918,3.77215385 C14.9687671,3.77215385 14.5830137,4.16758974 14.5830137,4.65384615 L14.5830137,8.93820513 C14.5830137,9.42728205 14.9687671,9.82158974 15.4421918,9.82158974 C15.9150685,9.82158974 16.3008219,9.42728205 16.3008219,8.93820513 L16.3008219,4.65384615" id="Fill-9"></path>
                <path d="M21.0131507,7.08512821 C21.0131507,6.59887179 20.629589,6.2045641 20.1594521,6.2045641 C19.6865753,6.2045641 19.3008219,6.59887179 19.3008219,7.08512821 L19.3008219,8.93820513 C19.3008219,9.42728205 19.6865753,9.82158974 20.1594521,9.82158974 C20.629589,9.82158974 21.0131507,9.42728205 21.0131507,8.93820513 L21.0131507,7.08512821" id="Fill-10"></path>
                <path d="M25.7326027,4.65384615 C25.7326027,4.16758974 25.349589,3.77215385 24.8761644,3.77215385 C24.4043836,3.77215385 24.020274,4.16758974 24.020274,4.65384615 L24.020274,8.93820513 C24.020274,9.42728205 24.4043836,9.82158974 24.8761644,9.82158974 C25.349589,9.82158974 25.7326027,9.42728205 25.7326027,8.93820513 L25.7326027,4.65384615" id="Fill-11"></path>
                <path d="M30.4531507,1.32733333 C30.4531507,0.840512821 30.070137,0.446205128 29.5972603,0.446205128 C29.1238356,0.446205128 28.7408219,0.840512821 28.7408219,1.32733333 L28.7408219,10.6987692 C28.7408219,11.1878462 29.1238356,11.5821538 29.5972603,11.5821538 C30.070137,11.5821538 30.4531507,11.1878462 30.4531507,10.6987692 L30.4531507,1.32733333" id="Fill-12"></path>
                <path d="M35.1726027,4.65384615 C35.1726027,4.16758974 34.789589,3.77215385 34.3057534,3.77215385 C33.8328767,3.77215385 33.449863,4.16758974 33.449863,4.65384615 L33.449863,8.93820513 C33.449863,9.42728205 33.8328767,9.82158974 34.3057534,9.82158974 C34.789589,9.82158974 35.1726027,9.42728205 35.1726027,8.93820513 L35.1726027,4.65384615" id="Fill-13"></path>
                <path d="M39.8827397,7.08512821 C39.8827397,6.59887179 39.4986301,6.2045641 39.0268493,6.2045641 C38.5534247,6.2045641 38.1693151,6.59887179 38.1693151,7.08512821 L38.1693151,8.93820513 C38.1693151,9.42728205 38.5534247,9.82158974 39.0268493,9.82158974 C39.4986301,9.82158974 39.8827397,9.42728205 39.8827397,8.93820513 L39.8827397,7.08512821" id="Fill-14"></path>
            </g>
        </g>
    </g>
</svg>